<?xml version="1.0" standalone="no"?>
<!DOCTYPE svg PUBLIC "-//W3C//DTD SVG 20010904//EN"
 "http://www.w3.org/TR/2001/REC-SVG-20010904/DTD/svg10.dtd">
<svg version="1.0" xmlns="http://www.w3.org/2000/svg"
 width="30px" height="36px" viewBox="0 0 480.000000 672.000000"
 preserveAspectRatio="xMidYMid meet">

<g transform="translate(0.000000,672.000000) scale(0.100000,-0.100000)"
fill="#000000" stroke="none">
<path d="M2352 6392 c-45 -61 -92 -127 -103 -147 -12 -19 -24 -35 -28 -35 -4
0 -36 30 -71 66 -36 36 -100 95 -143 131 -74 62 -79 64 -92 47 -16 -22 -37
-95 -64 -219 -11 -48 -22 -89 -25 -92 -5 -5 -61 9 -304 78 -56 16 -107 29
-113 29 -14 0 -5 -87 25 -238 12 -62 20 -115 17 -117 -2 -3 -39 -5 -81 -5
-111 0 -342 -20 -360 -31 -10 -6 3 -8 40 -4 30 2 136 10 235 16 99 6 183 13
186 15 3 2 -2 36 -12 76 -24 96 -52 259 -45 265 4 5 374 -94 417 -112 13 -5
21 20 49 154 18 88 36 165 41 172 7 13 84 -50 231 -188 36 -35 70 -63 75 -63
5 0 36 39 69 88 32 48 78 113 102 145 24 31 42 63 40 69 -2 6 -41 -39 -86
-100z"/>
<path d="M2450 6471 c0 -7 34 -60 75 -117 41 -57 89 -128 106 -159 l31 -56 32
35 c48 54 259 227 266 219 4 -5 26 -75 49 -158 23 -82 46 -154 50 -158 5 -5
35 1 67 12 80 26 185 53 190 48 7 -6 -25 -329 -36 -366 -8 -29 -7 -31 18 -31
15 0 56 5 92 10 133 20 214 30 218 26 2 -3 -5 -31 -16 -63 -11 -32 -39 -112
-62 -178 -23 -66 -48 -130 -56 -142 -23 -36 -17 -41 49 -42 34 0 89 -5 122
-11 33 -5 61 -10 63 -10 2 0 -31 -65 -73 -145 l-75 -145 16 -38 c24 -55 66
-193 61 -198 -3 -3 -27 1 -53 9 -45 13 -49 17 -60 59 -39 156 -176 276 -461
406 -83 38 -268 86 -398 103 -180 23 -551 -14 -709 -72 -316 -116 -635 -349
-723 -526 -39 -80 -43 -186 -13 -309 l22 -89 -53 -47 c-29 -26 -55 -46 -57
-43 -4 4 14 122 25 160 3 14 2 17 -5 10 -12 -11 -42 -149 -42 -191 0 -25 3
-23 70 36 68 61 70 61 80 38 5 -12 19 -68 30 -122 11 -55 27 -110 36 -123 14
-22 13 -27 -7 -60 -31 -49 -38 -168 -15 -245 18 -65 71 -136 142 -192 46 -37
44 -35 -19 31 -99 105 -136 198 -122 308 7 56 41 120 64 120 9 0 58 -106 61
-132 0 -1 -14 4 -30 10 -37 14 -64 1 -68 -34 -3 -27 69 -189 93 -209 13 -11
12 -7 -2 18 -18 31 -18 32 3 47 12 8 25 26 28 40 8 30 20 25 42 -17 15 -28 14
-31 -6 -45 -16 -11 -20 -23 -18 -51 3 -32 9 -40 58 -69 89 -53 111 -127 23
-78 -57 31 -63 31 -33 0 13 -14 41 -31 63 -37 21 -7 40 -17 42 -22 2 -6 24
-86 49 -177 25 -91 46 -169 46 -173 0 -3 -7 -6 -15 -6 -29 0 -113 -49 -141
-83 -16 -19 -40 -38 -54 -42 -43 -13 -79 -45 -88 -78 -10 -36 11 -365 28 -434
20 -85 18 -89 -72 -134 -108 -54 -205 -118 -244 -160 -76 -84 -244 -356 -269
-437 -6 -20 1 -17 49 22 89 72 201 144 290 187 80 39 86 40 217 46 l134 6 45
-32 c46 -32 132 -61 184 -61 16 0 59 -11 96 -24 60 -22 166 -42 260 -48 19 -2
34 -7 34 -13 -1 -5 -5 -82 -9 -170 -7 -167 11 -473 40 -684 8 -58 15 -119 15
-137 0 -32 -1 -33 -56 -40 -163 -20 -979 32 -998 64 -2 4 -11 72 -20 152 -26
221 -46 340 -64 374 -17 31 -17 29 -17 -89 0 -98 -5 -136 -25 -207 -14 -49
-28 -88 -31 -88 -13 0 -61 73 -71 107 -23 85 -19 -13 8 -169 5 -30 3 -38 -8
-38 -17 0 -170 94 -228 140 l-38 30 33 128 c18 70 41 165 50 212 23 112 63
238 87 272 13 19 16 33 10 44 -7 13 -12 8 -27 -27 -41 -102 -69 -199 -130
-447 -73 -295 -114 -435 -156 -534 -24 -55 -31 -90 -40 -198 -9 -114 -16 -147
-54 -255 -56 -156 -87 -285 -70 -285 7 0 18 26 25 62 6 34 34 125 60 202 43
123 50 157 59 269 9 105 16 141 40 195 16 37 46 126 67 197 21 72 39 131 40
133 1 2 45 -26 97 -61 52 -36 150 -92 218 -125 176 -86 173 -83 215 -241 l35
-132 -27 -142 c-34 -182 -40 -219 -48 -294 -6 -53 -5 -63 9 -63 10 0 15 10 15
34 0 18 7 73 16 122 9 49 24 134 34 189 9 55 20 93 23 85 13 -33 77 -253 77
-266 0 -13 18 -29 25 -22 6 6 -16 92 -68 268 -50 171 -118 432 -113 437 1 2
25 -1 52 -6 124 -24 462 -45 725 -45 l276 -1 7 -87 c3 -47 3 -142 0 -210 -5
-88 -2 -155 10 -238 9 -63 16 -133 16 -156 0 -54 10 -104 21 -104 13 0 11 54
-7 187 -10 75 -17 216 -19 388 -2 180 -8 303 -18 370 -19 118 -56 535 -58 650
-2 70 15 263 23 270 2 2 37 -6 78 -17 41 -10 112 -20 157 -21 l82 -2 -2 -100
c-1 -55 1 -145 5 -200 9 -136 19 -537 22 -895 2 -197 9 -343 21 -440 19 -164
24 -194 31 -188 2 3 -3 61 -12 129 -14 115 -29 599 -37 1257 -2 189 -2 192 19
192 22 0 23 -4 53 -515 8 -136 8 -137 10 -45 0 53 -4 188 -9 300 -6 113 -12
276 -13 363 l-2 158 30 -7 c69 -16 180 -4 298 33 15 5 17 -3 17 -75 0 -45 7
-161 15 -259 8 -98 19 -263 25 -368 11 -195 28 -418 55 -745 13 -155 28 -260
58 -405 3 -11 5 3 6 32 0 28 -6 85 -14 125 -9 40 -22 154 -30 253 -9 99 -19
225 -25 280 -5 55 -9 105 -10 110 0 6 54 11 139 12 76 1 228 11 337 22 110 11
240 23 291 27 l92 6 5 -33 c48 -280 59 -367 65 -509 4 -91 6 -204 3 -253 -4
-78 -3 -87 13 -87 17 0 18 15 12 248 -6 258 14 640 35 653 6 4 34 9 62 13 29
3 81 15 116 26 35 11 64 19 66 18 1 -2 10 -50 19 -108 28 -171 65 -270 101
-270 8 0 15 -19 19 -47 4 -27 22 -109 41 -183 49 -190 62 -248 69 -302 3 -27
11 -48 16 -48 16 0 -2 128 -31 225 -25 80 -27 97 -18 150 5 33 8 99 5 147 -2
48 0 91 5 96 5 5 5 44 -2 98 -15 117 -49 361 -62 449 -6 39 -11 77 -12 85 -3
23 -16 40 -29 39 -9 0 -9 -2 1 -6 6 -2 12 -12 12 -20 0 -11 -8 -14 -29 -11
-17 2 -28 1 -25 -4 3 -4 1 -14 -3 -22 -19 -34 -36 5 -58 130 -65 371 -93 481
-151 597 -45 88 -78 138 -149 218 -30 35 -52 66 -50 69 5 8 -115 125 -184 179
-51 39 -66 46 -116 53 -18 3 -22 22 -47 232 -36 314 -55 388 -123 490 -35 53
-86 86 -134 86 -41 0 -44 23 -21 142 12 62 28 136 35 163 7 28 21 85 30 128
16 72 20 79 49 91 45 19 67 50 116 163 52 118 60 190 36 308 -17 81 -35 120
-68 143 -10 7 -15 18 -12 24 10 16 33 216 34 291 0 76 -1 75 79 51 29 -8 55
-14 57 -11 7 7 -33 150 -59 207 l-24 56 55 99 c81 148 106 207 91 216 -7 4
-42 10 -78 13 -36 4 -84 9 -107 12 l-41 6 44 125 c24 69 54 163 67 209 l24 84
-32 0 c-17 0 -91 -9 -164 -18 -73 -10 -135 -16 -137 -13 -1 4 1 29 6 56 4 28
11 114 15 193 6 110 4 142 -5 142 -18 0 -159 -37 -208 -54 l-43 -15 -26 87
c-49 165 -66 217 -78 230 -10 10 -22 5 -62 -24 -46 -35 -154 -126 -215 -181
l-26 -24 -26 43 c-20 35 -167 242 -183 257 -2 2 -4 -1 -4 -8z m320 -1130 c233
-54 468 -164 586 -274 63 -58 75 -76 93 -130 35 -108 36 -145 7 -215 -14 -34
-26 -73 -26 -88 0 -15 -9 -42 -21 -60 l-20 -34 -37 19 c-100 51 -332 100 -502
106 -63 3 -117 5 -119 5 -2 0 4 9 14 20 11 12 31 20 49 20 130 0 176 67 176
258 0 118 -12 155 -70 213 -56 56 -115 78 -284 104 -93 15 -123 15 -205 5
-124 -15 -313 -55 -415 -87 -223 -70 -448 -231 -446 -320 1 -10 7 -1 15 21 7
21 19 44 26 50 9 8 10 6 5 -9 -22 -57 -17 -130 13 -229 39 -128 68 -162 139
-160 27 1 90 18 147 39 101 38 222 75 240 74 10 0 -138 -55 -282 -104 -81 -28
-151 -32 -192 -10 -23 11 -34 31 -59 102 -16 48 -33 112 -37 141 -4 28 -11 52
-16 52 -6 0 -7 -16 -3 -37 10 -58 74 -252 85 -258 5 -4 6 -11 3 -17 -4 -6 -2
-8 4 -5 15 10 43 -3 35 -16 -4 -6 0 -8 10 -4 10 3 17 3 17 -2 0 -8 102 3 119
13 5 4 29 3 51 0 l42 -7 -56 -31 c-129 -72 -220 -130 -308 -196 -51 -38 -100
-70 -108 -70 -8 0 -26 6 -40 13 -22 11 -28 10 -51 -14 l-26 -26 -13 51 c-7 28
-28 105 -47 171 -80 278 -66 341 122 530 178 179 541 364 783 400 148 22 174
23 352 19 119 -2 189 -8 250 -23z m-111 -91 c177 -36 213 -56 257 -142 20 -39
24 -62 23 -130 0 -95 -11 -174 -26 -189 -6 -6 -89 -12 -199 -13 -190 -4 -360
-25 -494 -62 -170 -47 -245 -71 -339 -105 -179 -67 -205 -54 -260 125 -58 189
-9 280 214 387 125 60 208 86 410 124 154 30 286 31 414 5z m-63 -690 c-38
-42 -53 -88 -18 -58 9 9 42 30 72 47 30 17 51 31 46 31 -5 0 -33 -14 -63 -30
-29 -17 -53 -27 -53 -23 0 4 14 22 32 40 27 28 39 33 77 33 34 0 42 -3 31 -10
-11 -8 -6 -8 15 -3 17 4 80 7 140 7 108 -2 154 -10 312 -56 l72 -21 36 -85
c20 -47 43 -115 52 -151 9 -36 18 -60 21 -53 5 17 -34 143 -68 220 -16 34 -25
62 -21 62 16 0 132 -83 146 -104 11 -17 12 -49 3 -183 -6 -89 -14 -160 -18
-158 -4 3 -10 27 -14 55 -4 28 -11 60 -16 73 -9 19 -9 18 -5 -8 8 -47 23 -170
20 -173 -1 -1 -26 2 -55 8 -29 5 -85 9 -124 8 -63 -1 -64 -2 -16 -5 99 -5 191
-24 197 -41 6 -15 -10 -131 -29 -209 l-10 -41 -64 24 c-36 13 -72 24 -82 23
-9 0 8 -8 38 -18 104 -34 109 -38 98 -80 -17 -66 -60 -196 -68 -204 -4 -5 -30
7 -56 26 -50 35 -114 71 -114 63 0 -2 21 -16 48 -31 26 -15 61 -41 79 -58 31
-29 31 -30 15 -56 -74 -118 -244 -281 -293 -281 -15 0 -39 -4 -53 -10 -21 -7
-33 -5 -59 10 -37 23 -136 27 -202 9 -55 -16 -116 -60 -109 -79 19 -47 53
-824 53 -1217 0 -212 0 -213 -22 -214 l-22 -2 23 -4 c27 -5 29 -29 2 -38 -39
-12 -43 1 -35 124 9 146 11 51 -29 1191 -2 63 -7 125 -11 138 -6 16 -3 22 9
22 31 0 16 17 -16 17 -18 1 -71 8 -118 17 -96 19 -133 15 -202 -20 -26 -13
-54 -24 -63 -24 -37 0 -227 123 -284 184 l-23 24 38 44 c64 72 70 86 11 25
l-56 -59 -34 48 c-19 26 -47 71 -63 100 -26 49 -28 56 -15 76 13 21 13 22 -3
8 -21 -16 -20 -18 -75 99 l-36 74 35 28 c18 16 56 36 83 45 26 9 46 18 44 20
-7 7 -91 -26 -130 -52 l-37 -24 -9 22 c-8 22 -24 175 -39 381 l-8 99 32 27
c39 35 197 134 281 177 74 37 166 48 283 35 41 -5 77 -8 78 -6 6 6 -47 37 -84
50 -20 7 -32 15 -27 18 21 13 282 77 348 86 39 4 103 9 144 10 l73 1 -36 -40z
m-486 -94 l35 -16 -49 5 c-27 3 -72 5 -100 6 l-51 1 35 13 c41 17 81 14 130
-9z m1404 -75 c34 -38 59 -132 60 -226 1 -86 -1 -95 -43 -190 -43 -95 -88
-155 -116 -155 -24 0 5 82 41 116 56 52 55 113 -1 99 -18 -4 -20 0 -17 35 3
31 8 40 22 40 25 0 50 10 50 21 0 5 -14 6 -32 2 l-31 -6 6 64 c4 35 14 70 21
78 13 12 17 9 33 -25 22 -48 22 -49 28 -42 3 3 -4 26 -16 52 -16 38 -25 47
-40 43 -17 -5 -19 1 -19 54 0 51 3 59 18 59 11 0 26 -8 36 -19z m-2011 -363
c4 -90 9 -181 12 -203 l5 -40 -25 53 c-32 67 -95 235 -95 253 0 13 78 99 91
99 3 0 9 -73 12 -162z m1948 -72 l-21 -20 0 23 c0 14 8 33 18 44 17 19 17 19
20 -3 2 -13 -5 -31 -17 -44z m-2037 -42 c9 -8 20 -23 25 -33 13 -24 -7 -101
-26 -101 -21 0 -75 120 -61 137 14 18 43 16 62 -3z m132 -235 c18 -36 18 -39
-7 -39 -50 0 -61 20 -43 79 6 18 30 -2 50 -40z m1734 -320 c-27 -105 -34 -119
-48 -93 -21 39 -17 63 22 123 22 33 41 59 43 57 2 -2 -6 -41 -17 -87z m-1558
-30 c37 -58 37 -61 27 -110 -6 -28 -13 -49 -15 -47 -5 5 -74 236 -73 245 0 5
6 0 12 -11 7 -10 29 -45 49 -77z m1644 -78 c35 -9 47 -21 92 -89 57 -87 70
-132 98 -327 32 -235 51 -458 42 -500 -8 -36 -60 -105 -80 -105 -4 0 -9 24 -9
53 l-2 52 -7 -60 c-12 -105 -53 -160 -133 -180 -15 -4 -35 -17 -45 -29 -27
-35 -63 -54 -112 -59 -25 -3 -60 -13 -79 -23 -19 -9 -56 -19 -82 -22 -45 -4
-47 -3 -53 24 -9 45 -24 189 -31 299 -3 55 -17 216 -31 357 -13 142 -24 284
-24 317 0 32 -7 77 -15 100 -13 38 -13 41 5 51 24 13 79 13 117 0 27 -10 32
-19 51 -93 19 -74 34 -178 62 -422 l9 -80 -5 100 c-9 171 -53 452 -75 481 -22
27 66 67 127 57 27 -4 39 -14 55 -42 19 -33 19 -25 3 28 -4 15 2 23 25 35 44
23 77 20 105 -11 25 -27 34 -57 73 -248 12 -62 19 -80 21 -59 4 41 -33 221
-57 277 -33 76 -85 96 -149 57 -32 -20 -82 -27 -82 -12 0 4 7 18 16 30 15 21
17 22 34 7 20 -18 34 -7 45 37 6 22 10 25 28 18 12 -4 40 -13 63 -19z m-196
14 c0 -14 -33 -85 -40 -85 -5 0 -12 10 -15 21 -5 15 0 28 16 45 23 22 39 30
39 19z m40 -9 c0 -7 -8 -20 -17 -27 -15 -12 -16 -12 -10 4 4 10 7 23 7 28 0 5
5 9 10 9 6 0 10 -6 10 -14z m-1426 -53 c5 -17 2 -31 -8 -41 -20 -21 -24 -15
-18 31 5 43 17 48 26 10z m63 -11 l42 -37 -13 -50 -13 -50 -18 34 c-24 47 -55
141 -47 141 4 -1 26 -18 49 -38z m1245 -24 c-15 -15 -24 -6 -16 16 5 12 10 14
17 7 8 -8 8 -14 -1 -23z m75 10 c-3 -8 -6 -5 -6 6 -1 11 2 17 5 13 3 -3 4 -12
1 -19z m-120 -33 c-4 -8 -14 -15 -23 -15 -16 0 -16 2 1 20 20 22 31 20 22 -5z
m-1222 -57 c17 -34 34 -62 40 -62 5 -1 16 24 24 54 8 30 16 57 17 59 2 2 18
-7 36 -20 18 -13 53 -34 78 -46 l45 -21 -37 -1 c-27 -1 -38 4 -41 17 -4 14 -5
13 -6 -4 -1 -28 -71 -73 -97 -63 -45 18 -99 10 -142 -22 -38 -28 -46 -30 -71
-19 -55 22 -107 13 -153 -28 -32 -27 -19 -35 13 -8 34 29 89 34 146 14 29 -10
35 -9 55 9 49 44 115 57 153 29 17 -12 23 -10 57 17 30 24 49 31 86 31 l47 1
7 -100 c3 -55 13 -166 22 -247 9 -81 16 -225 17 -320 0 -95 6 -229 13 -298 7
-69 11 -128 9 -132 -6 -11 -67 -10 -97 2 -14 5 -26 17 -26 27 0 10 -5 25 -11
33 -7 11 -8 5 -3 -22 5 -34 4 -36 -24 -43 -70 -15 -181 42 -195 100 -3 15 -5
12 -6 -9 -1 -28 -2 -29 -48 -22 -30 4 -56 15 -73 31 -16 16 -38 25 -57 25 -72
0 -88 27 -98 165 -4 55 -18 154 -32 220 -21 101 -37 262 -45 458 -1 39 31 79
79 97 22 8 54 31 71 51 52 60 147 91 192 64 12 -7 13 -6 3 6 -10 12 -10 18 -1
27 7 7 14 12 18 12 3 0 19 -28 35 -62z m1027 24 c26 -22 36 -65 43 -182 3 -58
15 -197 25 -310 10 -113 24 -272 30 -355 6 -82 17 -192 24 -243 l13 -93 -26
-18 c-62 -43 -211 -71 -305 -57 l-46 7 0 107 c0 100 -6 270 -30 812 -5 124
-14 240 -19 258 -9 29 -7 34 22 56 18 14 55 29 82 34 64 12 165 4 187 -16z
m-464 -33 c87 -14 92 -23 102 -204 14 -236 33 -991 26 -1010 -16 -42 -321 8
-346 56 -17 30 -39 349 -39 559 0 102 -5 219 -10 260 -6 41 -11 123 -11 182
l0 106 62 31 c68 34 107 38 216 20z m1551 -978 c125 -51 129 -55 176 -154 51
-108 84 -226 121 -432 38 -214 38 -212 22 -229 -18 -18 -22 -146 -7 -229 9
-55 9 -62 -7 -74 -42 -30 -49 -19 -69 105 -17 111 -35 167 -35 110 0 -31 -9
-58 -19 -58 -11 0 -29 41 -63 145 -17 50 -34 95 -39 101 -5 7 -13 54 -18 105
-5 52 -9 78 -10 59 -2 -19 -4 -44 -6 -55 -3 -11 -7 -56 -10 -100 -7 -86 -64
-349 -74 -340 -3 4 -11 25 -17 48 -10 37 -12 27 -10 -81 1 -116 0 -122 -19
-122 -11 0 -105 -9 -210 -19 -262 -27 -500 -43 -560 -39 l-50 3 -11 150 c-7
83 -15 240 -18 350 -3 110 -9 273 -12 363 -4 129 -2 162 8 162 24 1 295 135
329 163 19 16 61 44 94 62 l60 35 200 -4 c179 -2 206 -5 254 -25z m78 -803
c-3 -8 -6 -5 -6 6 -1 11 2 17 5 13 3 -3 4 -12 1 -19z m263 -38 c0 -11 -4 -20
-10 -20 -5 0 -10 9 -10 20 0 11 5 20 10 20 6 0 10 -9 10 -20z m131 -76 c3 -27
5 -50 4 -52 -1 -1 -14 15 -29 36 -32 47 -34 69 -3 67 19 -1 23 -9 28 -51z
m-108 -72 c9 -59 26 -132 36 -163 18 -54 51 -233 51 -278 0 -21 -24 -29 -35
-11 -6 9 -30 124 -61 290 -20 104 -36 249 -29 261 14 22 21 3 38 -99z m65 46
c37 -55 47 -86 72 -237 22 -128 21 -201 -5 -251 l-13 -25 -7 37 c-4 22 -2 52
5 74 16 47 7 207 -14 279 -10 31 -29 64 -51 85 -20 19 -35 44 -35 57 0 34 16
28 48 -19z m-341 -75 c-2 -16 -4 -3 -4 27 0 30 2 43 4 28 2 -16 2 -40 0 -55z
m-50 -90 c-2 -32 -3 -8 -3 52 0 61 1 87 3 58 2 -29 2 -78 0 -110z m423 -16
c20 -88 26 -187 13 -201 -4 -4 -17 39 -29 96 -16 74 -18 105 -10 110 8 6 3 23
-16 58 -36 64 -37 97 -3 55 15 -18 32 -62 45 -118z m-373 11 c-2 -13 -4 -5 -4
17 -1 22 1 32 4 23 2 -10 2 -28 0 -40z m-51 -229 c-3 -33 -9 -87 -13 -121 l-6
-63 -23 115 c-13 63 -23 120 -23 125 -1 7 14 9 35 7 l36 -4 -6 -59z m500 -96
c-11 -11 -17 4 -9 23 7 18 8 18 11 1 2 -10 1 -21 -2 -24z m8 -22 c3 -5 -1 -14
-10 -21 -11 -10 -18 -10 -27 -1 -9 9 -9 14 3 21 19 12 27 12 34 1z m-84 -27
c0 -9 -7 -14 -17 -12 -25 5 -28 28 -4 28 12 0 21 -6 21 -16z m60 -14 c14 0 22
-96 15 -162 -10 -86 -30 -50 -22 41 6 61 5 64 -8 36 l-13 -30 -1 31 c-1 17 -4
46 -8 64 -5 29 -4 32 11 27 10 -4 21 -7 26 -7z"/>
<path d="M2204 5139 c-41 -12 -71 -46 -95 -108 -25 -67 -5 -56 26 14 13 29 34
59 47 66 l23 12 -22 -24 c-12 -13 -24 -37 -28 -54 -5 -25 -3 -23 13 11 12 24
29 43 42 47 12 3 19 10 15 16 -11 18 48 13 88 -8 l38 -19 46 26 c26 14 41 28
35 30 -7 2 -28 -6 -48 -17 -31 -18 -38 -19 -57 -7 -30 19 -86 26 -123 15z"/>
<path d="M2821 5136 c-23 -28 17 -68 45 -45 19 15 18 45 -2 53 -23 9 -30 8
-43 -8z m34 -16 c3 -5 1 -10 -4 -10 -6 0 -11 5 -11 10 0 6 2 10 4 10 3 0 8 -4
11 -10z"/>
<path d="M2391 5100 l-42 -31 -26 21 c-14 11 -31 20 -37 20 -6 0 6 -12 27 -26
l38 -25 50 31 c27 18 49 34 49 36 0 11 -21 1 -59 -26z"/>
<path d="M2218 5033 c-20 -24 -29 -51 -19 -58 5 -2 12 6 15 20 8 33 50 44 76
20 47 -42 11 -118 -60 -128 -19 -3 -53 -12 -75 -20 -22 -8 -54 -18 -72 -22
l-32 -6 15 45 c9 25 14 51 12 58 -5 13 -38 -75 -38 -100 0 -17 41 -14 145 13
96 24 117 35 137 74 13 25 14 39 6 62 -19 54 -80 77 -110 42z"/>
<path d="M2261 5003 c26 -6 30 -42 8 -64 -27 -27 -57 -24 -90 12 -32 34 -38
32 -13 -6 30 -45 114 -42 129 5 8 25 -11 60 -33 59 -15 -1 -15 -2 -1 -6z"/>
<path d="M2863 4993 c-16 -6 -17 -39 -2 -49 6 -3 18 1 27 10 14 14 14 18 2 30
-8 7 -21 12 -27 9z"/>
<path d="M2095 4927 c-10 -26 -15 -50 -12 -53 5 -5 87 16 87 23 0 1 -8 11 -17
21 -10 10 -23 27 -29 38 -9 16 -13 13 -29 -29z m44 -31 c-8 -7 -49 -17 -49
-12 0 2 5 17 10 32 l11 27 15 -22 c9 -12 14 -24 13 -25z"/>
<path d="M2817 4873 c-13 -12 -7 -43 7 -43 20 0 29 17 14 23 -10 4 -10 6 0 6
6 1 12 6 12 11 0 11 -23 14 -33 3z"/>
<path d="M2545 4805 l-70 -13 95 6 c52 3 106 9 120 13 42 13 -67 8 -145 -6z"/>
<path d="M2269 4765 c-63 -14 -126 -29 -140 -35 l-24 -10 25 4 c14 2 84 15
155 29 72 14 141 28 155 30 15 3 9 5 -15 5 -22 0 -92 -10 -156 -23z"/>
<path d="M2865 4504 c-75 -27 -143 -113 -164 -203 -12 -56 1 -52 21 7 37 104
113 168 212 179 51 6 161 -20 196 -46 26 -19 27 -26 16 -86 -9 -44 8 -46 23
-4 20 59 14 95 -20 120 -67 47 -201 63 -284 33z"/>
<path d="M2840 4434 c-85 -72 -80 -198 12 -254 38 -23 120 -27 155 -7 34 19
71 74 78 117 9 53 -22 123 -67 150 -51 31 -137 28 -178 -6z m149 -15 c108 -38
61 -229 -58 -229 -43 0 -111 65 -111 107 0 58 20 94 64 114 48 22 62 23 105 8z"/>
<path d="M2910 4335 c-19 -23 -8 -50 20 -50 19 0 26 6 28 24 5 35 -26 53 -48
26z"/>
<path d="M1827 4326 c-63 -18 -138 -68 -160 -106 -18 -30 -18 -32 5 -78 31
-62 54 -69 27 -8 -17 40 -18 49 -6 66 23 32 64 60 129 87 78 31 146 28 213
-12 39 -23 106 -96 118 -128 2 -7 7 -9 10 -6 9 7 -30 79 -62 112 -67 73 -175
101 -274 73z"/>
<path d="M1874 4279 c-36 -10 -82 -53 -95 -87 -36 -94 33 -200 138 -209 54 -5
98 18 137 70 30 41 29 121 -2 165 -39 54 -115 80 -178 61z m125 -54 c59 -50
49 -155 -19 -190 -96 -49 -199 34 -169 136 14 44 21 52 64 67 52 18 91 14 124
-13z"/>
<path d="M1900 4156 c-27 -33 18 -72 48 -42 13 13 14 20 6 34 -15 23 -38 26
-54 8z"/>
<path d="M3064 4179 c-34 -37 -70 -49 -156 -50 -78 -2 -80 -2 -33 -10 55 -8
129 -2 160 14 26 12 65 48 65 59 0 14 -16 9 -36 -13z"/>
<path d="M1798 3970 c32 -27 98 -43 140 -35 48 9 149 47 137 52 -6 2 -37 -6
-70 -17 -73 -25 -118 -25 -174 0 -54 25 -63 25 -33 0z"/>
<path d="M2568 3823 c7 -3 16 -2 19 1 4 3 -2 6 -13 5 -11 0 -14 -3 -6 -6z"/>
<path d="M1755 3790 c-14 -7 -8 -8 20 -3 22 3 42 7 44 9 9 8 -45 2 -64 -6z"/>
<path d="M3158 3783 c6 -2 18 -2 25 0 6 3 1 5 -13 5 -14 0 -19 -2 -12 -5z"/>
<path d="M2548 3583 c7 -3 16 -2 19 1 4 3 -2 6 -13 5 -11 0 -14 -3 -6 -6z"/>
<path d="M2588 3583 c6 -2 18 -2 25 0 6 3 1 5 -13 5 -14 0 -19 -2 -12 -5z"/>
<path d="M1743 3554 c-24 -14 -43 -27 -43 -30 0 -6 67 33 85 48 17 15 1 8 -42
-18z"/>
<path d="M2450 3558 c-54 -28 -69 -61 -69 -162 -1 -84 15 -143 45 -162 49 -33
203 -26 277 13 52 27 67 49 67 103 0 28 -3 50 -7 50 -5 0 -8 -21 -8 -47 l0
-48 -40 2 c-39 2 -39 2 -12 -9 15 -7 27 -15 27 -19 0 -17 -141 -59 -195 -58
-88 1 -92 19 -11 45 l41 14 -45 -6 c-25 -3 -52 -12 -60 -20 -31 -27 -60 21
-60 98 0 64 33 129 70 139 l25 7 -25 1 c-70 3 -59 41 19 65 25 8 37 15 26 15
-12 1 -41 -9 -65 -21z"/>
<path d="M2640 3570 c23 -14 1 -30 -72 -50 l-63 -18 76 5 c69 5 79 3 116 -20
25 -16 43 -36 47 -53 4 -14 10 -24 13 -20 3 3 -9 35 -26 71 -21 43 -42 70 -61
80 -32 16 -54 20 -30 5z"/>
<path d="M2600 3290 l-25 -8 25 0 c14 0 36 4 50 8 l25 8 -25 0 c-14 0 -36 -4
-50 -8z"/>
<path d="M2522 3005 c0 -16 2 -22 5 -12 2 9 2 23 0 30 -3 6 -5 -1 -5 -18z"/>
<path d="M2532 2905 c0 -16 2 -22 5 -12 2 9 2 23 0 30 -3 6 -5 -1 -5 -18z"/>
<path d="M2558 1673 c7 -3 16 -2 19 1 4 3 -2 6 -13 5 -11 0 -14 -3 -6 -6z"/>
<path d="M3285 2965 c5 -41 20 -206 34 -375 8 -90 8 -92 10 -29 1 77 -25 352
-39 407 l-10 37 5 -40z"/>
<path d="M3333 2375 c0 -27 2 -38 4 -22 2 15 2 37 0 50 -2 12 -4 0 -4 -28z"/>
<path d="M1903 2885 c0 -22 2 -30 4 -17 2 12 2 30 0 40 -3 9 -5 -1 -4 -23z"/>
<path d="M1921 2654 c0 -11 3 -14 6 -6 3 7 2 16 -1 19 -3 4 -6 -2 -5 -13z"/>
<path d="M1941 2524 c0 -11 3 -14 6 -6 3 7 2 16 -1 19 -3 4 -6 -2 -5 -13z"/>
<path d="M1953 2445 c0 -22 2 -30 4 -17 2 12 2 30 0 40 -3 9 -5 -1 -4 -23z"/>
<path d="M1044 5759 c20 -37 56 -97 81 -135 49 -74 52 -83 33 -89 -7 -2 -93
-29 -190 -60 -121 -38 -178 -60 -178 -70 0 -15 173 -174 221 -202 16 -10 29
-20 29 -23 -1 -3 -37 -27 -81 -55 -44 -27 -117 -84 -162 -127 l-82 -76 36 -16
c20 -8 88 -29 150 -47 63 -17 118 -34 122 -38 4 -4 -10 -37 -31 -72 -70 -114
-152 -290 -152 -325 0 -7 54 1 146 22 171 39 171 39 159 46 -6 3 -72 -9 -148
-26 -134 -32 -137 -32 -131 -12 10 35 109 240 148 306 21 35 33 67 29 71 -7 7
-204 63 -271 77 -12 2 -24 8 -27 12 -8 13 126 132 220 195 47 33 88 62 91 66
3 5 -8 16 -23 26 -64 41 -233 184 -233 198 0 2 85 31 190 65 104 33 192 64
194 69 3 5 -29 63 -72 129 -104 161 -108 167 -68 91z"/>
<path d="M2571 1334 c0 -11 3 -14 6 -6 3 7 2 16 -1 19 -3 4 -6 -2 -5 -13z"/>
<path d="M4340 1279 c0 -5 5 -7 10 -4 6 3 10 8 10 11 0 2 -4 4 -10 4 -5 0 -10
-5 -10 -11z"/>
<path d="M2632 640 c-2 -209 8 -346 41 -547 13 -77 21 -102 31 -92 2 2 -4 51
-14 109 -27 159 -41 310 -49 538 l-8 207 -1 -215z"/>
</g>
</svg>
